<?xml version="1.0" encoding="UTF-8"?>
<svg id="Capa_5" data-name="Capa 5" xmlns="http://www.w3.org/2000/svg" viewBox="0 0 988.65 1002.63">
  <defs>
    <style>
      .cls-1 {
        fill: #17c4eb;
      }

      .cls-2 {
        fill: #eb1768;
      }

      .cls-3 {
        fill: #fff;
        stroke: #000;
        stroke-miterlimit: 10;
        stroke-width: 16px;
      }
    </style>
  </defs>
  <g>
    <path class="cls-1" d="m139.02,775.17h122.5v24.64h-93.14v75.59h86.06v24.3h-86.06v102.93h-29.36v-227.46Z"/>
    <path class="cls-1" d="m332.73,775.17v227.46h-29.36v-227.46h29.36Z"/>
    <path class="cls-1" d="m384.03,775.17h29.36v202.83h97.19v24.64h-126.55v-227.46Z"/>
    <path class="cls-1" d="m735,902.74c-1.69-31.72-3.71-69.86-3.37-98.21h-1.01c-7.76,26.66-17.21,55.01-28.69,86.39l-40.16,110.36h-22.27l-36.79-108.33c-10.8-32.06-19.91-61.42-26.32-88.42h-.68c-.67,28.35-2.36,66.48-4.39,100.57l-6.07,97.53h-28.01l15.86-227.46h37.46l38.81,110.02c9.45,28.01,17.21,52.98,22.95,76.61h1.01c5.74-22.95,13.84-47.92,23.96-76.61l40.5-110.02h37.46l14.17,227.46h-28.69l-5.74-99.89Z"/>
  </g>
  <g>
    <g>
      <path class="cls-2" d="m291.86,615.76h-116.51v108.05h129.85v32.46h-168.53L32.86,260.94l265.67,195.63v32.46h-123.18v94.72h116.51v32.02Z"/>
      <path class="cls-2" d="m423.46,756.28v-127.18l-94.72-172.54h44.02l42.24,82.71c11.56,22.68,20.46,40.91,29.79,61.81h.89c8.45-19.56,18.68-39.13,30.24-61.81l43.13-82.71h44.02l-100.5,172.09v127.62h-39.14Z"/>
    </g>
    <path class="cls-2" d="m603.5,582.62h116.51v-94.72h-123.18v-32.46l258.67-194.5-96.81,494.22h-168.53v-32.46h129.85v-108.05h-116.51v-32.02Z"/>
  </g>
  <g>
    <path class="cls-3" d="m18.47,204.48s415.9-357.94,837.03,0c0,0-455.68,314.45-837.03,0Z"/>
    <circle cx="437.17" cy="199.47" r="125.45"/>
  </g>
</svg>